<svg xmlns="http://www.w3.org/2000/svg" width="1024" height="1024" viewBox="0 0 1024 1024"><path d="M526.096 212.413C544.969 205.669 571.625 197.49 591.55 193.542C674.557 177.368 760.557 188.011 837.117 223.933C931.634 268.747 1006.52 353.179 1021.72 458.12C1022.49 463.443 1022.57 469.656 1024 474.762L1024 514.345C1021.97 522.429 1022.1 531.79 1020.56 540.082C1017.52 556.473 1013.8 572.922 1008.58 588.774C989.543 646.517 954.095 698.801 911.484 741.783C905.028 748.296 891.623 762.018 883.618 766.255L879.761 769.935C876.229 783.604 874.591 795.219 869.711 808.887C827.256 927.786 708.38 998.855 588.198 1017.66C583.126 1018.45 561.687 1020.59 559.615 1024L465.622 1024C463.41 1020.87 451.18 1020.17 446.776 1019.53C438.752 1018.31 430.739 1017.01 422.738 1015.64C410.309 1013.48 392.292 1008.56 379.837 1004.85C331.203 990.269 285.755 966.649 245.877 935.225C181.226 884.475 130.851 806.468 120.945 723.995C120.85 723.29 120.65 721.888 120.12 721.465C116.035 718.207 111.405 714.651 107.394 711.388C87.8686 695.5 70.3836 677.258 55.3378 657.077C32.8035 626.41 15.9062 592.564 7.13056 555.41C5.57642 548.79 4.27158 542.113 3.21882 535.395C2.56694 531.305 1.78366 524.823 0.758292 520.995L0 520.561L0 472.984C0.262404 472.629 0.803531 471.943 0.854827 471.49C13.0531 363.742 79.1281 281.19 175.038 230.316C195.165 219.867 216.227 211.325 237.947 204.803C314.855 180.876 382.547 182.236 460.963 197.166C483.484 201.453 503.952 205.588 526.096 212.413Z"/><path fill="#90142F" d="M0 472.984C0.262404 472.629 0.803531 471.943 0.854827 471.49C13.0531 363.742 79.1281 281.19 175.038 230.316C195.165 219.867 216.227 211.325 237.947 204.803C314.855 180.876 382.547 182.236 460.963 197.166C483.484 201.453 503.952 205.588 526.096 212.413L524.162 213.277C523.237 213.641 522.386 213.984 521.442 214.298C519.113 212.896 512.072 213.871 507.95 213.426C430.266 213.14 352.466 239.245 297.322 295.188C256.913 336.184 227.65 393.172 228.206 451.645C229.405 577.844 338.441 667.319 460.332 666.488C496.753 666.09 532.644 657.701 565.469 641.914C575.589 636.974 585.915 630.663 595.602 624.836C591.899 636.702 588.65 646.424 583.157 657.643C561.278 702.335 524.635 735.154 481.059 758.012C403.128 798.891 307.263 800.095 224.469 774.083C194.201 764.639 165.311 751.245 138.546 734.247C134.342 731.54 127.228 726.907 122.786 723.849C122.451 723.953 122.117 724.057 121.783 724.162L120.945 723.995C120.85 723.29 120.65 721.888 120.12 721.465C116.035 718.207 111.405 714.651 107.394 711.388C87.8686 695.5 70.3836 677.258 55.3378 657.077C32.8035 626.41 15.9062 592.564 7.13056 555.41C5.57642 548.79 4.27158 542.113 3.21882 535.395C2.56694 531.305 1.78366 524.823 0.758292 520.995L0 520.561L0 472.984Z"/><path fill="#1F0001" d="M507.95 213.426C511.186 213.075 521.257 212.657 524.162 213.277C523.237 213.641 522.386 213.984 521.442 214.298C519.113 212.896 512.072 213.871 507.95 213.426Z"/><path fill="#FE6A6B" d="M529.13 494.89C539.62 490.592 553.021 487.621 564.217 485.646C616.38 476.687 670.014 482.695 718.902 502.973C784.975 530.706 838.561 580.726 866.036 647.544C880.876 683.633 887.903 731.459 879.761 769.935C876.229 783.604 874.591 795.219 869.711 808.887C827.256 927.786 708.38 998.855 588.198 1017.66C583.126 1018.45 561.687 1020.59 559.615 1024L465.622 1024C463.41 1020.87 451.18 1020.17 446.776 1019.53C438.752 1018.31 430.739 1017.01 422.738 1015.64C410.309 1013.48 392.292 1008.56 379.837 1004.85C331.203 990.269 285.755 966.649 245.877 935.225C181.226 884.475 130.851 806.468 120.945 723.995L121.783 724.162C190.326 870.672 395.908 925.037 536.12 856.893C592.465 829.509 638.297 786.207 659.606 726.566C675.092 684.341 672.818 637.644 653.303 597.124C629.48 547.039 584.963 514.502 533.624 496.44C532.131 495.908 530.633 495.391 529.13 494.89Z"/><path fill="#EB0E3B" d="M526.096 212.413C544.969 205.669 571.625 197.49 591.55 193.542C674.557 177.368 760.557 188.011 837.117 223.933C931.634 268.747 1006.52 353.179 1021.72 458.12C1022.49 463.443 1022.57 469.656 1024 474.762L1024 514.345C1021.97 522.429 1022.1 531.79 1020.56 540.082C1017.52 556.473 1013.8 572.922 1008.58 588.774C989.543 646.517 954.095 698.801 911.484 741.783C905.028 748.296 891.623 762.018 883.618 766.255C884.038 765.258 891.151 755.39 892.246 753.858C896.335 748.142 899.166 743.548 902.549 737.337C922.771 700.2 932.445 660.071 930.443 617.692C927.567 556.799 897.951 499.33 854.056 458.003C797.24 404.5 723.211 379.042 645.374 381.697C542.964 385.189 437.576 455.62 425.404 563.172C424.015 575.442 424.651 586.182 425.106 598.418C399.177 579.608 378.455 554.517 364.886 525.5C343.006 477.65 341.911 419.812 360.309 370.536C382.553 310.961 425.747 265.555 480.422 234.073C494.649 225.881 506.717 221.017 521.442 214.298C522.386 213.984 523.237 213.641 524.162 213.277L526.096 212.413Z"/><path fill="#029D5F" d="M300.297 0L352.867 0C353.059 0.0468857 353.252 0.0937713 353.444 0.140657C415.27 6.24683 463.932 28.3236 511.181 69.4662C524.826 80.9488 533.843 93.6392 544.709 107.153C528.54 123.197 522.191 130.918 511.454 151.235C502.86 135.983 496.582 125.378 483.935 112.635C450.965 78.9023 405.882 59.7438 358.714 59.4216C355.842 58.746 353.421 58.9359 350.461 58.8878C352.897 59.7451 355.667 61.0111 357.903 60.0541C358.303 60.461 381.867 68.4103 384.764 69.5314C396.305 74.1229 407.368 79.8333 417.795 86.5809C454.734 110.755 480.452 148.715 489.205 191.985C435.448 182.631 379.65 152.072 344.998 109.64C323.739 83.8614 308.586 53.6076 300.675 21.1437C299.502 16.3718 297.208 7.58125 297.674 2.94981C299.123 1.9604 299.724 1.76988 300.297 0Z"/><defs><linearGradient id="gradient_0" gradientUnits="userSpaceOnUse" x1="739.04486" y1="42.853531" x2="511.77536" y2="126.07861"><stop offset="0" stop-color="#C7DA3F"/><stop offset="1" stop-color="#82BE50"/></linearGradient></defs><path fill="url(#gradient_0)" d="M665.012 0L717.49 0C719.466 3.53034 722.886 2.94971 726.595 4.16563C724.819 17.8915 721.916 28.0219 717.332 41.0324C703.027 82.1466 676.924 118.134 642.284 144.498C612.74 167.217 571.164 186.219 534.162 191.225C535.286 183.205 537.81 175.641 540.51 168.092C557.005 121.978 596.799 84.8922 642.253 67.7859C646.376 66.2343 650.965 64.1315 655.204 63.0568C658.489 62.297 662.271 61.3523 665.518 60.4106C666.605 60.4993 669.84 60.1394 670.528 59.3037C669.792 58.4784 663.752 58.9777 662.59 59.2839C657.354 60.0482 652.915 59.702 648.255 60.3978C607.906 64.3504 574.84 80.6154 544.709 107.153C533.843 93.6392 524.826 80.9488 511.181 69.4662C513.633 67.0049 519.21 62.6491 522.037 60.3287C551.504 36.6004 585.566 19.2337 622.077 9.32348C630.425 7.08772 638.869 5.227 647.384 3.74693C652.386 2.91583 659.921 2.14207 664.52 1.09961L665.012 0Z"/><path fill="#FEFEFE" fill-opacity="0.47450981" d="M662.59 59.2839C664.22 59.4946 664.168 59.5035 665.518 60.4106C662.271 61.3523 658.489 62.297 655.204 63.0568C653.195 60.1488 651.77 60.672 648.255 60.3978C652.915 59.702 657.354 60.0482 662.59 59.2839Z"/><path fill="#DEEC9A" fill-opacity="0.98823529" d="M662.59 59.2839C663.752 58.9777 669.792 58.4784 670.528 59.3037C669.84 60.1394 666.605 60.4993 665.518 60.4106C664.168 59.5035 664.22 59.4946 662.59 59.2839Z"/><path fill="#CBF0E2" fill-opacity="0.97647059" d="M350.461 58.8878C353.421 58.9359 355.842 58.746 358.714 59.4216L357.903 60.0541C355.667 61.0111 352.897 59.7451 350.461 58.8878Z"/></svg>